<mxfile host="app.diagrams.net" agent="Mozilla/5.0 (Windows NT 10.0; Win64; x64) AppleWebKit/537.36 (KHTML, like Gecko) Chrome/131.0.0.0 Safari/537.36" version="26.0.6">
  <diagram name="페이지-1" id="pWOAdBIes4Hdsz3ML0j7">
    <mxGraphModel dx="1195" dy="617" grid="1" gridSize="10" guides="1" tooltips="1" connect="1" arrows="1" fold="1" page="1" pageScale="1" pageWidth="827" pageHeight="1169" math="0" shadow="0">
      <root>
        <mxCell id="0" />
        <mxCell id="1" parent="0" />
        <mxCell id="H3ku75pNalI3m0zlUq1A-1" value="Entity" style="whiteSpace=wrap;html=1;align=center;" vertex="1" parent="1">
          <mxGeometry x="210" y="290" width="100" height="40" as="geometry" />
        </mxCell>
        <mxCell id="H3ku75pNalI3m0zlUq1A-2" value="Relationship" style="shape=rhombus;perimeter=rhombusPerimeter;whiteSpace=wrap;html=1;align=center;" vertex="1" parent="1">
          <mxGeometry x="330" y="280" width="120" height="60" as="geometry" />
        </mxCell>
        <mxCell id="H3ku75pNalI3m0zlUq1A-3" value="Attribute" style="ellipse;whiteSpace=wrap;html=1;align=center;" vertex="1" parent="1">
          <mxGeometry x="470" y="290" width="100" height="40" as="geometry" />
        </mxCell>
        <mxCell id="H3ku75pNalI3m0zlUq1A-4" value="Attribute" style="ellipse;whiteSpace=wrap;html=1;align=center;fontStyle=4;" vertex="1" parent="1">
          <mxGeometry x="590" y="290" width="100" height="40" as="geometry" />
        </mxCell>
        <mxCell id="H3ku75pNalI3m0zlUq1A-5" value="Entity" style="whiteSpace=wrap;html=1;align=center;" vertex="1" parent="1">
          <mxGeometry x="200" y="370" width="100" height="40" as="geometry" />
        </mxCell>
        <mxCell id="H3ku75pNalI3m0zlUq1A-6" value="Relationship" style="shape=rhombus;perimeter=rhombusPerimeter;whiteSpace=wrap;html=1;align=center;" vertex="1" parent="1">
          <mxGeometry x="390" y="360" width="120" height="60" as="geometry" />
        </mxCell>
        <mxCell id="H3ku75pNalI3m0zlUq1A-8" value="Entity" style="whiteSpace=wrap;html=1;align=center;" vertex="1" parent="1">
          <mxGeometry x="610" y="370" width="100" height="40" as="geometry" />
        </mxCell>
        <mxCell id="H3ku75pNalI3m0zlUq1A-9" value="" style="endArrow=none;html=1;rounded=0;exitX=1;exitY=0.5;exitDx=0;exitDy=0;entryX=0;entryY=0.5;entryDx=0;entryDy=0;" edge="1" parent="1" source="H3ku75pNalI3m0zlUq1A-5" target="H3ku75pNalI3m0zlUq1A-6">
          <mxGeometry relative="1" as="geometry">
            <mxPoint x="660" y="370" as="sourcePoint" />
            <mxPoint x="820" y="370" as="targetPoint" />
          </mxGeometry>
        </mxCell>
        <mxCell id="H3ku75pNalI3m0zlUq1A-27" value="1" style="edgeLabel;html=1;align=center;verticalAlign=middle;resizable=0;points=[];" vertex="1" connectable="0" parent="H3ku75pNalI3m0zlUq1A-9">
          <mxGeometry x="-0.6444" y="-1" relative="1" as="geometry">
            <mxPoint x="-6" y="-11" as="offset" />
          </mxGeometry>
        </mxCell>
        <mxCell id="H3ku75pNalI3m0zlUq1A-10" value="" style="endArrow=none;html=1;rounded=0;exitX=1;exitY=0.5;exitDx=0;exitDy=0;entryX=0;entryY=0.5;entryDx=0;entryDy=0;" edge="1" parent="1" target="H3ku75pNalI3m0zlUq1A-8">
          <mxGeometry relative="1" as="geometry">
            <mxPoint x="510" y="389.83" as="sourcePoint" />
            <mxPoint x="520" y="390" as="targetPoint" />
          </mxGeometry>
        </mxCell>
        <mxCell id="H3ku75pNalI3m0zlUq1A-28" value="1" style="edgeLabel;html=1;align=center;verticalAlign=middle;resizable=0;points=[];" vertex="1" connectable="0" parent="H3ku75pNalI3m0zlUq1A-10">
          <mxGeometry x="0.6218" y="2" relative="1" as="geometry">
            <mxPoint y="-8" as="offset" />
          </mxGeometry>
        </mxCell>
        <mxCell id="H3ku75pNalI3m0zlUq1A-12" value="Entity" style="whiteSpace=wrap;html=1;align=center;" vertex="1" parent="1">
          <mxGeometry x="200" y="460" width="100" height="40" as="geometry" />
        </mxCell>
        <mxCell id="H3ku75pNalI3m0zlUq1A-13" value="Relationship" style="shape=rhombus;perimeter=rhombusPerimeter;whiteSpace=wrap;html=1;align=center;" vertex="1" parent="1">
          <mxGeometry x="390" y="450" width="120" height="60" as="geometry" />
        </mxCell>
        <mxCell id="H3ku75pNalI3m0zlUq1A-14" value="Entity" style="whiteSpace=wrap;html=1;align=center;" vertex="1" parent="1">
          <mxGeometry x="610" y="460" width="100" height="40" as="geometry" />
        </mxCell>
        <mxCell id="H3ku75pNalI3m0zlUq1A-15" value="" style="endArrow=none;html=1;rounded=0;exitX=1;exitY=0.5;exitDx=0;exitDy=0;entryX=0;entryY=0.5;entryDx=0;entryDy=0;" edge="1" source="H3ku75pNalI3m0zlUq1A-12" target="H3ku75pNalI3m0zlUq1A-13" parent="1">
          <mxGeometry relative="1" as="geometry">
            <mxPoint x="660" y="460" as="sourcePoint" />
            <mxPoint x="820" y="460" as="targetPoint" />
          </mxGeometry>
        </mxCell>
        <mxCell id="H3ku75pNalI3m0zlUq1A-32" value="1" style="edgeLabel;html=1;align=center;verticalAlign=middle;resizable=0;points=[];" vertex="1" connectable="0" parent="H3ku75pNalI3m0zlUq1A-15">
          <mxGeometry x="-0.7302" relative="1" as="geometry">
            <mxPoint y="-10" as="offset" />
          </mxGeometry>
        </mxCell>
        <mxCell id="H3ku75pNalI3m0zlUq1A-17" value="Entity" style="whiteSpace=wrap;html=1;align=center;" vertex="1" parent="1">
          <mxGeometry x="200" y="560" width="100" height="40" as="geometry" />
        </mxCell>
        <mxCell id="H3ku75pNalI3m0zlUq1A-18" value="Relationship" style="shape=rhombus;perimeter=rhombusPerimeter;whiteSpace=wrap;html=1;align=center;" vertex="1" parent="1">
          <mxGeometry x="390" y="550" width="120" height="60" as="geometry" />
        </mxCell>
        <mxCell id="H3ku75pNalI3m0zlUq1A-19" value="Entity" style="whiteSpace=wrap;html=1;align=center;" vertex="1" parent="1">
          <mxGeometry x="610" y="560" width="100" height="40" as="geometry" />
        </mxCell>
        <mxCell id="H3ku75pNalI3m0zlUq1A-22" value="Entity" style="whiteSpace=wrap;html=1;align=center;" vertex="1" parent="1">
          <mxGeometry x="200" y="660" width="100" height="40" as="geometry" />
        </mxCell>
        <mxCell id="H3ku75pNalI3m0zlUq1A-23" value="Relationship" style="shape=rhombus;perimeter=rhombusPerimeter;whiteSpace=wrap;html=1;align=center;" vertex="1" parent="1">
          <mxGeometry x="390" y="650" width="120" height="60" as="geometry" />
        </mxCell>
        <mxCell id="H3ku75pNalI3m0zlUq1A-24" value="Entity" style="whiteSpace=wrap;html=1;align=center;" vertex="1" parent="1">
          <mxGeometry x="610" y="660" width="100" height="40" as="geometry" />
        </mxCell>
        <mxCell id="H3ku75pNalI3m0zlUq1A-31" value="" style="edgeStyle=entityRelationEdgeStyle;fontSize=12;html=1;endArrow=ERmany;rounded=0;entryX=0;entryY=0.5;entryDx=0;entryDy=0;exitX=1;exitY=0.5;exitDx=0;exitDy=0;" edge="1" parent="1" source="H3ku75pNalI3m0zlUq1A-13" target="H3ku75pNalI3m0zlUq1A-14">
          <mxGeometry width="100" height="100" relative="1" as="geometry">
            <mxPoint x="420" y="550" as="sourcePoint" />
            <mxPoint x="520" y="450" as="targetPoint" />
          </mxGeometry>
        </mxCell>
        <mxCell id="H3ku75pNalI3m0zlUq1A-33" value="N" style="edgeLabel;html=1;align=center;verticalAlign=middle;resizable=0;points=[];" vertex="1" connectable="0" parent="H3ku75pNalI3m0zlUq1A-31">
          <mxGeometry x="0.6429" relative="1" as="geometry">
            <mxPoint y="-10" as="offset" />
          </mxGeometry>
        </mxCell>
        <mxCell id="H3ku75pNalI3m0zlUq1A-34" value="" style="edgeStyle=entityRelationEdgeStyle;fontSize=12;html=1;endArrow=ERmany;rounded=0;entryX=1;entryY=0.5;entryDx=0;entryDy=0;exitX=0;exitY=0.5;exitDx=0;exitDy=0;" edge="1" parent="1" source="H3ku75pNalI3m0zlUq1A-18" target="H3ku75pNalI3m0zlUq1A-17">
          <mxGeometry width="100" height="100" relative="1" as="geometry">
            <mxPoint x="500" y="600" as="sourcePoint" />
            <mxPoint x="600" y="500" as="targetPoint" />
          </mxGeometry>
        </mxCell>
        <mxCell id="H3ku75pNalI3m0zlUq1A-35" value="N" style="edgeLabel;html=1;align=center;verticalAlign=middle;resizable=0;points=[];" vertex="1" connectable="0" parent="H3ku75pNalI3m0zlUq1A-34">
          <mxGeometry x="0.654" y="-2" relative="1" as="geometry">
            <mxPoint x="74" y="-8" as="offset" />
          </mxGeometry>
        </mxCell>
        <mxCell id="H3ku75pNalI3m0zlUq1A-40" value="" style="endArrow=none;html=1;rounded=0;exitX=1;exitY=0.5;exitDx=0;exitDy=0;entryX=0;entryY=0.5;entryDx=0;entryDy=0;" edge="1" parent="1" source="H3ku75pNalI3m0zlUq1A-18" target="H3ku75pNalI3m0zlUq1A-19">
          <mxGeometry relative="1" as="geometry">
            <mxPoint x="470" y="550" as="sourcePoint" />
            <mxPoint x="630" y="550" as="targetPoint" />
          </mxGeometry>
        </mxCell>
        <mxCell id="H3ku75pNalI3m0zlUq1A-41" value="1" style="edgeLabel;html=1;align=center;verticalAlign=middle;resizable=0;points=[];" vertex="1" connectable="0" parent="H3ku75pNalI3m0zlUq1A-40">
          <mxGeometry x="-0.8314" y="2" relative="1" as="geometry">
            <mxPoint x="-9" y="-8" as="offset" />
          </mxGeometry>
        </mxCell>
        <mxCell id="H3ku75pNalI3m0zlUq1A-45" value="" style="edgeStyle=entityRelationEdgeStyle;fontSize=12;html=1;endArrow=ERmany;rounded=0;entryX=1;entryY=0.5;entryDx=0;entryDy=0;exitX=0;exitY=0.5;exitDx=0;exitDy=0;" edge="1" parent="1" source="H3ku75pNalI3m0zlUq1A-23" target="H3ku75pNalI3m0zlUq1A-22">
          <mxGeometry width="100" height="100" relative="1" as="geometry">
            <mxPoint x="500" y="600" as="sourcePoint" />
            <mxPoint x="600" y="500" as="targetPoint" />
          </mxGeometry>
        </mxCell>
        <mxCell id="H3ku75pNalI3m0zlUq1A-47" value="N" style="edgeLabel;html=1;align=center;verticalAlign=middle;resizable=0;points=[];" vertex="1" connectable="0" parent="H3ku75pNalI3m0zlUq1A-45">
          <mxGeometry x="-0.6506" y="-2" relative="1" as="geometry">
            <mxPoint x="16" y="-18" as="offset" />
          </mxGeometry>
        </mxCell>
        <mxCell id="H3ku75pNalI3m0zlUq1A-46" value="" style="edgeStyle=entityRelationEdgeStyle;fontSize=12;html=1;endArrow=ERmany;rounded=0;entryX=0;entryY=0.5;entryDx=0;entryDy=0;exitX=1;exitY=0.5;exitDx=0;exitDy=0;" edge="1" parent="1" source="H3ku75pNalI3m0zlUq1A-23" target="H3ku75pNalI3m0zlUq1A-24">
          <mxGeometry width="100" height="100" relative="1" as="geometry">
            <mxPoint x="590" y="630" as="sourcePoint" />
            <mxPoint x="500" y="630" as="targetPoint" />
          </mxGeometry>
        </mxCell>
        <mxCell id="H3ku75pNalI3m0zlUq1A-48" value="M" style="edgeLabel;html=1;align=center;verticalAlign=middle;resizable=0;points=[];" vertex="1" connectable="0" parent="H3ku75pNalI3m0zlUq1A-46">
          <mxGeometry x="-0.749" y="-2" relative="1" as="geometry">
            <mxPoint x="-12" y="-22" as="offset" />
          </mxGeometry>
        </mxCell>
        <mxCell id="H3ku75pNalI3m0zlUq1A-49" value="Entity" style="whiteSpace=wrap;html=1;align=center;" vertex="1" parent="1">
          <mxGeometry x="60" y="1140" width="100" height="40" as="geometry" />
        </mxCell>
        <mxCell id="H3ku75pNalI3m0zlUq1A-50" value="Relationship" style="shape=rhombus;perimeter=rhombusPerimeter;whiteSpace=wrap;html=1;align=center;" vertex="1" parent="1">
          <mxGeometry x="180" y="1130" width="120" height="60" as="geometry" />
        </mxCell>
        <mxCell id="H3ku75pNalI3m0zlUq1A-51" value="Attribute" style="ellipse;whiteSpace=wrap;html=1;align=center;" vertex="1" parent="1">
          <mxGeometry x="320" y="1140" width="100" height="40" as="geometry" />
        </mxCell>
        <mxCell id="H3ku75pNalI3m0zlUq1A-52" value="Attribute" style="ellipse;whiteSpace=wrap;html=1;align=center;fontStyle=4;" vertex="1" parent="1">
          <mxGeometry x="440" y="1140" width="100" height="40" as="geometry" />
        </mxCell>
        <mxCell id="H3ku75pNalI3m0zlUq1A-53" value="고객" style="whiteSpace=wrap;html=1;align=center;" vertex="1" parent="1">
          <mxGeometry x="290" y="1400" width="100" height="40" as="geometry" />
        </mxCell>
        <mxCell id="H3ku75pNalI3m0zlUq1A-54" value="&lt;u&gt;&lt;font color=&quot;#ff0202&quot;&gt;고객 코드&lt;/font&gt;&lt;/u&gt;" style="ellipse;whiteSpace=wrap;html=1;align=center;" vertex="1" parent="1">
          <mxGeometry x="40" y="1420" width="100" height="40" as="geometry" />
        </mxCell>
        <mxCell id="H3ku75pNalI3m0zlUq1A-55" value="고객명" style="ellipse;whiteSpace=wrap;html=1;align=center;" vertex="1" parent="1">
          <mxGeometry x="90" y="1300" width="100" height="40" as="geometry" />
        </mxCell>
        <mxCell id="H3ku75pNalI3m0zlUq1A-56" value="&lt;u&gt;&lt;font color=&quot;#ff0202&quot;&gt;전화번호&lt;/font&gt;&lt;/u&gt;" style="ellipse;whiteSpace=wrap;html=1;align=center;" vertex="1" parent="1">
          <mxGeometry x="200" y="1260" width="100" height="40" as="geometry" />
        </mxCell>
        <mxCell id="H3ku75pNalI3m0zlUq1A-57" value="이메일" style="ellipse;whiteSpace=wrap;html=1;align=center;" vertex="1" parent="1">
          <mxGeometry x="314" y="1250" width="100" height="40" as="geometry" />
        </mxCell>
        <mxCell id="H3ku75pNalI3m0zlUq1A-58" value="주소" style="ellipse;whiteSpace=wrap;html=1;align=center;" vertex="1" parent="1">
          <mxGeometry x="470" y="1280" width="100" height="40" as="geometry" />
        </mxCell>
        <mxCell id="H3ku75pNalI3m0zlUq1A-59" value="" style="endArrow=none;html=1;rounded=0;exitX=0.5;exitY=1;exitDx=0;exitDy=0;entryX=0;entryY=0.5;entryDx=0;entryDy=0;" edge="1" parent="1" source="H3ku75pNalI3m0zlUq1A-54" target="H3ku75pNalI3m0zlUq1A-53">
          <mxGeometry relative="1" as="geometry">
            <mxPoint x="460" y="1430" as="sourcePoint" />
            <mxPoint x="620" y="1430" as="targetPoint" />
          </mxGeometry>
        </mxCell>
        <mxCell id="H3ku75pNalI3m0zlUq1A-60" value="" style="endArrow=none;html=1;rounded=0;exitX=0.5;exitY=1;exitDx=0;exitDy=0;entryX=0;entryY=0;entryDx=0;entryDy=0;" edge="1" parent="1" source="H3ku75pNalI3m0zlUq1A-55" target="H3ku75pNalI3m0zlUq1A-53">
          <mxGeometry relative="1" as="geometry">
            <mxPoint x="460" y="1430" as="sourcePoint" />
            <mxPoint x="620" y="1430" as="targetPoint" />
          </mxGeometry>
        </mxCell>
        <mxCell id="H3ku75pNalI3m0zlUq1A-61" value="" style="endArrow=none;html=1;rounded=0;exitX=0.5;exitY=1;exitDx=0;exitDy=0;entryX=0.5;entryY=0;entryDx=0;entryDy=0;" edge="1" parent="1" source="H3ku75pNalI3m0zlUq1A-56" target="H3ku75pNalI3m0zlUq1A-53">
          <mxGeometry relative="1" as="geometry">
            <mxPoint x="460" y="1430" as="sourcePoint" />
            <mxPoint x="620" y="1430" as="targetPoint" />
          </mxGeometry>
        </mxCell>
        <mxCell id="H3ku75pNalI3m0zlUq1A-62" value="" style="endArrow=none;html=1;rounded=0;exitX=0.5;exitY=1;exitDx=0;exitDy=0;entryX=0.5;entryY=0;entryDx=0;entryDy=0;" edge="1" parent="1" source="H3ku75pNalI3m0zlUq1A-57" target="H3ku75pNalI3m0zlUq1A-53">
          <mxGeometry relative="1" as="geometry">
            <mxPoint x="460" y="1430" as="sourcePoint" />
            <mxPoint x="620" y="1430" as="targetPoint" />
          </mxGeometry>
        </mxCell>
        <mxCell id="H3ku75pNalI3m0zlUq1A-63" value="" style="endArrow=none;html=1;rounded=0;exitX=0.5;exitY=1;exitDx=0;exitDy=0;entryX=0.5;entryY=0;entryDx=0;entryDy=0;" edge="1" parent="1" source="H3ku75pNalI3m0zlUq1A-58" target="H3ku75pNalI3m0zlUq1A-53">
          <mxGeometry relative="1" as="geometry">
            <mxPoint x="460" y="1430" as="sourcePoint" />
            <mxPoint x="620" y="1430" as="targetPoint" />
          </mxGeometry>
        </mxCell>
        <mxCell id="H3ku75pNalI3m0zlUq1A-64" value="가입일" style="ellipse;whiteSpace=wrap;html=1;align=center;" vertex="1" parent="1">
          <mxGeometry x="560" y="1380" width="100" height="40" as="geometry" />
        </mxCell>
        <mxCell id="H3ku75pNalI3m0zlUq1A-65" value="&lt;font color=&quot;#ff5619&quot;&gt;지역&lt;/font&gt;" style="ellipse;whiteSpace=wrap;html=1;align=center;" vertex="1" parent="1">
          <mxGeometry x="490" y="1460" width="100" height="40" as="geometry" />
        </mxCell>
        <mxCell id="H3ku75pNalI3m0zlUq1A-67" value="" style="endArrow=none;html=1;rounded=0;exitX=0;exitY=0.5;exitDx=0;exitDy=0;entryX=1;entryY=0;entryDx=0;entryDy=0;" edge="1" parent="1" source="H3ku75pNalI3m0zlUq1A-64" target="H3ku75pNalI3m0zlUq1A-53">
          <mxGeometry relative="1" as="geometry">
            <mxPoint x="460" y="1430" as="sourcePoint" />
            <mxPoint x="620" y="1430" as="targetPoint" />
          </mxGeometry>
        </mxCell>
        <mxCell id="H3ku75pNalI3m0zlUq1A-68" value="" style="endArrow=none;html=1;rounded=0;entryX=1;entryY=0.5;entryDx=0;entryDy=0;exitX=0;exitY=0.5;exitDx=0;exitDy=0;" edge="1" parent="1" source="H3ku75pNalI3m0zlUq1A-65" target="H3ku75pNalI3m0zlUq1A-53">
          <mxGeometry relative="1" as="geometry">
            <mxPoint x="490" y="1540" as="sourcePoint" />
            <mxPoint x="620" y="1430" as="targetPoint" />
          </mxGeometry>
        </mxCell>
        <mxCell id="H3ku75pNalI3m0zlUq1A-71" value="기본주소" style="ellipse;whiteSpace=wrap;html=1;align=center;" vertex="1" parent="1">
          <mxGeometry x="580" y="1240" width="100" height="40" as="geometry" />
        </mxCell>
        <mxCell id="H3ku75pNalI3m0zlUq1A-72" value="상세 주소" style="ellipse;whiteSpace=wrap;html=1;align=center;" vertex="1" parent="1">
          <mxGeometry x="580" y="1290" width="100" height="40" as="geometry" />
        </mxCell>
        <mxCell id="H3ku75pNalI3m0zlUq1A-81" value="" style="endArrow=none;html=1;rounded=0;entryX=0.064;entryY=0.782;entryDx=0;entryDy=0;entryPerimeter=0;exitX=0.953;exitY=0.254;exitDx=0;exitDy=0;exitPerimeter=0;" edge="1" parent="1" source="H3ku75pNalI3m0zlUq1A-58" target="H3ku75pNalI3m0zlUq1A-71">
          <mxGeometry relative="1" as="geometry">
            <mxPoint x="560" y="1289.43" as="sourcePoint" />
            <mxPoint x="720" y="1289.43" as="targetPoint" />
          </mxGeometry>
        </mxCell>
        <mxCell id="H3ku75pNalI3m0zlUq1A-82" value="" style="endArrow=none;html=1;rounded=0;entryX=0.047;entryY=0.289;entryDx=0;entryDy=0;entryPerimeter=0;exitX=0.953;exitY=0.254;exitDx=0;exitDy=0;exitPerimeter=0;" edge="1" parent="1" source="H3ku75pNalI3m0zlUq1A-58" target="H3ku75pNalI3m0zlUq1A-72">
          <mxGeometry relative="1" as="geometry">
            <mxPoint x="560" y="1289.43" as="sourcePoint" />
            <mxPoint x="720" y="1289.43" as="targetPoint" />
          </mxGeometry>
        </mxCell>
      </root>
    </mxGraphModel>
  </diagram>
</mxfile>
